<svg width="30" height="37" viewBox="0 0 30 37" fill="none" xmlns="http://www.w3.org/2000/svg">
<g id="Vector">
<mask id="path-1-inside-1_2142_381" fill="white">
<path d="M14.8303 10.7503C13.4141 10.7503 11.2225 9.15405 8.91433 9.21032C5.8667 9.2503 3.07304 10.962 1.50292 13.6733C-1.65974 19.115 0.68723 27.1525 3.77221 31.5755C5.28556 33.7285 7.07081 36.151 9.43721 36.0755C11.708 35.9793 12.5595 34.614 15.3158 34.614C18.0512 34.614 18.8266 36.0755 21.2318 36.0178C23.6774 35.9793 25.2296 33.8263 26.7235 31.6525C28.4505 29.153 29.1676 26.729 29.2064 26.5958C29.1482 26.5765 24.4527 24.7878 24.396 19.4038C24.3571 14.9023 28.1009 12.7493 28.2757 12.6531C26.1409 9.5583 22.8632 9.2118 21.7173 9.1348C18.7295 8.9038 16.2271 10.7488 14.8303 10.7488V10.7503ZM19.8768 6.21032C21.1362 4.71181 21.9683 2.61655 21.7368 0.539062C19.9336 0.616061 17.7599 1.73106 16.4602 3.23106C15.2949 4.55781 14.288 6.69305 14.5584 8.73056C16.5573 8.88455 18.6144 7.7118 19.8753 6.21181"/>
</mask>
<path d="M14.8303 10.7503C13.4141 10.7503 11.2225 9.15405 8.91433 9.21032C5.8667 9.2503 3.07304 10.962 1.50292 13.6733C-1.65974 19.115 0.68723 27.1525 3.77221 31.5755C5.28556 33.7285 7.07081 36.151 9.43721 36.0755C11.708 35.9793 12.5595 34.614 15.3158 34.614C18.0512 34.614 18.8266 36.0755 21.2318 36.0178C23.6774 35.9793 25.2296 33.8263 26.7235 31.6525C28.4505 29.153 29.1676 26.729 29.2064 26.5958C29.1482 26.5765 24.4527 24.7878 24.396 19.4038C24.3571 14.9023 28.1009 12.7493 28.2757 12.6531C26.1409 9.5583 22.8632 9.2118 21.7173 9.1348C18.7295 8.9038 16.2271 10.7488 14.8303 10.7488V10.7503ZM19.8768 6.21032C21.1362 4.71181 21.9683 2.61655 21.7368 0.539062C19.9336 0.616061 17.7599 1.73106 16.4602 3.23106C15.2949 4.55781 14.288 6.69305 14.5584 8.73056C16.5573 8.88455 18.6144 7.7118 19.8753 6.21181" fill="white"/>
<path d="M14.8303 10.7503V11.7503H15.8303V10.7503H14.8303ZM8.91433 9.21032L8.92745 10.2103L8.9387 10.21L8.91433 9.21032ZM1.50292 13.6733L2.36751 14.1758L2.36828 14.1744L1.50292 13.6733ZM3.77221 31.5755L2.952 32.1476L2.95409 32.1506L3.77221 31.5755ZM9.43721 36.0755L9.4691 37.0751L9.47955 37.0746L9.43721 36.0755ZM21.2318 36.0178L21.2161 35.0179L21.2078 35.0181L21.2318 36.0178ZM26.7235 31.6525L25.9008 31.0841L25.8994 31.0861L26.7235 31.6525ZM29.2064 26.5958L30.1665 26.8756L30.4366 25.949L29.5202 25.6463L29.2064 26.5958ZM24.396 19.4038L23.396 19.4124L23.396 19.4143L24.396 19.4038ZM28.2757 12.6531L28.7581 13.529L29.7268 12.9956L29.0989 12.0852L28.2757 12.6531ZM21.7173 9.1348L21.6403 10.1319L21.6503 10.1326L21.7173 9.1348ZM14.8303 10.7488V9.74882H13.8303V10.7488H14.8303ZM21.7368 0.539062L22.7306 0.428287L22.6272 -0.49987L21.6941 -0.460027L21.7368 0.539062ZM16.4602 3.23106L17.2116 3.89098L17.216 3.88591L16.4602 3.23106ZM14.5584 8.73056L13.5671 8.86212L13.6737 9.66536L14.4816 9.7276L14.5584 8.73056ZM14.8303 9.7503C14.6437 9.7503 14.3669 9.69406 13.9529 9.55429C13.5396 9.41478 13.1052 9.23455 12.5675 9.02655C11.5511 8.63337 10.2615 8.17718 8.88996 8.21062L8.9387 10.21C9.87531 10.1872 10.8355 10.501 11.846 10.8919C12.3218 11.0759 12.8451 11.2912 13.3132 11.4492C13.7805 11.607 14.3088 11.7503 14.8303 11.7503V9.7503ZM8.90121 8.21041C5.47935 8.25529 2.37275 10.1759 0.637555 13.1721L2.36828 14.1744C3.77334 11.7482 6.25405 10.2453 8.92745 10.2102L8.90121 8.21041ZM0.638332 13.1708C-1.10383 16.1684 -1.29089 19.8042 -0.689833 23.1817C-0.0874633 26.5665 1.32649 29.8171 2.95201 32.1476L4.5924 31.0035C3.13294 28.911 1.83092 25.9313 1.27923 22.8312C0.726219 19.7238 0.947002 16.6199 2.3675 14.1758L0.638332 13.1708ZM2.95409 32.1506C3.70397 33.2174 4.58458 34.4465 5.60413 35.3938C6.62685 36.3441 7.91038 37.1248 9.4691 37.075L9.40531 35.076C8.59764 35.1018 7.80535 34.709 6.9655 33.9286C6.12249 33.1453 5.3538 32.0867 4.59032 31.0005L2.95409 32.1506ZM9.47955 37.0746C10.8245 37.0176 11.7709 36.5712 12.5817 36.2307C13.3758 35.8971 14.1334 35.614 15.3158 35.614V33.614C13.7419 33.614 12.6956 34.0136 11.8072 34.3867C10.9355 34.7528 10.3207 35.0372 9.39486 35.0764L9.47955 37.0746ZM15.3158 35.614C16.4728 35.614 17.196 35.9108 18.004 36.2568C18.8423 36.6158 19.8154 37.0521 21.2558 37.0175L21.2078 35.0181C20.243 35.0412 19.6258 34.7756 18.7913 34.4183C17.9264 34.0479 16.8943 33.614 15.3158 33.614V35.614ZM21.2476 37.0176C22.7938 36.9933 24.0184 36.2909 25.0137 35.3698C25.9888 34.4676 26.8095 33.293 27.5477 32.2189L25.8994 31.0861C25.1437 32.1858 24.4413 33.1746 23.6553 33.9019C22.8897 34.6104 22.1154 35.0037 21.2161 35.0179L21.2476 37.0176ZM27.5462 32.221C29.361 29.5944 30.1146 27.0537 30.1665 26.8756L28.2464 26.316C28.2206 26.4044 27.54 28.7117 25.9008 31.0841L27.5462 32.221ZM29.5202 25.6463C29.5994 25.6724 28.5478 25.2865 27.4874 24.2847C26.4526 23.3071 25.4209 21.759 25.3959 19.3932L23.396 19.4143C23.4279 22.4326 24.7722 24.4709 26.1139 25.7385C27.43 26.9818 28.7553 27.4999 28.8927 27.5453L29.5202 25.6463ZM25.3959 19.3952C25.3791 17.4459 26.1755 16.0077 27.0153 15.0268C27.4369 14.5345 27.8653 14.1631 28.1964 13.9108C28.3614 13.7851 28.5004 13.6904 28.5998 13.6261C28.6495 13.5941 28.6889 13.5698 28.7165 13.5533C28.7448 13.5364 28.7592 13.5284 28.7581 13.529L27.7934 11.7771C27.5746 11.8976 23.352 14.3088 23.396 19.4124L25.3959 19.3952ZM29.0989 12.0852C26.689 8.59169 22.9936 8.21831 21.7844 8.13705L21.6503 10.1326C22.7328 10.2053 25.5928 10.5249 27.4526 13.2209L29.0989 12.0852ZM21.7944 8.13778C20.08 8.00523 18.5416 8.47102 17.3315 8.91683C16.6578 9.16501 16.2452 9.343 15.7414 9.52162C15.2714 9.68824 14.9939 9.74882 14.8303 9.74882V11.7488C15.3651 11.7488 15.9242 11.5788 16.4097 11.4067C16.8613 11.2466 17.5229 10.9777 18.0229 10.7935C19.1601 10.3746 20.3668 10.0334 21.6403 10.1318L21.7944 8.13778ZM13.8303 10.7488V10.7503H15.8303V10.7488H13.8303ZM20.6424 6.85371C22.0391 5.19178 22.9986 2.8324 22.7306 0.428287L20.7429 0.649838C20.9381 2.4007 20.2333 4.23184 19.1113 5.56694L20.6424 6.85371ZM21.6941 -0.460027C19.584 -0.369921 17.1623 0.893751 15.7044 2.57621L17.216 3.88591C18.3576 2.56838 20.2832 1.60204 21.7794 1.53815L21.6941 -0.460027ZM15.7088 2.57116C14.4255 4.03232 13.2464 6.44527 13.5671 8.86212L15.5497 8.599C15.3297 6.94083 16.1643 5.0833 17.2115 3.89096L15.7088 2.57116ZM14.4816 9.7276C16.8949 9.91353 19.241 8.52056 20.6408 6.85526L19.1098 5.56835C17.9879 6.90305 16.2197 7.85558 14.6352 7.73351L14.4816 9.7276Z" fill="black" mask="url(#path-1-inside-1_2142_381)"/>
</g>
</svg>
