<svg width="76" height="76" viewBox="0 0 76 76" fill="none" xmlns="http://www.w3.org/2000/svg">
<g id="mdi:bike-fast" clip-path="url(#clip0_2142_440)">
<path id="Vector" d="M50.6667 3.80033C47.5 3.80033 44.9667 6.33366 44.9667 9.50033C44.9667 12.667 47.5 15.2003 50.6667 15.2003C53.8333 15.2003 56.3667 12.667 56.3667 9.50033C56.3667 6.33366 53.8333 3.80033 50.6667 3.80033ZM39.2667 12.9837C37.7783 12.9837 36.4167 13.5853 35.4667 14.567L23.75 26.252C22.7683 27.2337 22.1667 28.5003 22.1667 30.0837C22.1667 32.0787 23.2117 33.757 24.8583 34.7387L35.4667 41.167V57.0003H41.1667V36.417L34.0417 31.192L41.3883 23.7503L46.8667 31.667H60.1667V25.967H50.0333L43.89 15.612C42.9717 14.0287 41.1667 12.9837 39.2667 12.9837ZM31.6667 9.50033H9.5C7.75833 9.50033 6.33333 8.07533 6.33333 6.33366C6.33333 4.59199 7.75833 3.16699 9.5 3.16699H40.5017C39.8367 4.24366 39.2983 5.41533 39.0133 6.68199C36.29 6.74533 33.725 7.75866 31.6667 9.50033ZM15.8333 38.0003C7.09333 38.0003 0 45.0937 0 53.8337C0 62.5737 7.09333 69.667 15.8333 69.667C24.5733 69.667 31.6667 62.5737 31.6667 53.8337C31.6667 45.0937 24.5733 38.0003 15.8333 38.0003ZM15.8333 64.917C9.72167 64.917 4.75 59.9453 4.75 53.8337C4.75 47.722 9.72167 42.7503 15.8333 42.7503C21.945 42.7503 26.9167 47.722 26.9167 53.8337C26.9167 59.9453 21.945 64.917 15.8333 64.917ZM60.1667 38.0003C51.4267 38.0003 44.3333 45.0937 44.3333 53.8337C44.3333 62.5737 51.4267 69.667 60.1667 69.667C68.9067 69.667 76 62.5737 76 53.8337C76 45.0937 68.9067 38.0003 60.1667 38.0003ZM60.1667 64.917C54.055 64.917 49.0833 59.9453 49.0833 53.8337C49.0833 47.722 54.055 42.7503 60.1667 42.7503C66.2783 42.7503 71.25 47.722 71.25 53.8337C71.25 59.9453 66.2783 64.917 60.1667 64.917ZM16.8467 34.8337H3.16667C1.41867 34.8337 0 33.4087 0 31.667C0 29.9253 1.41867 28.5003 3.16667 28.5003H15.9917C15.9283 29.007 15.8333 29.5453 15.8333 30.0837C15.8333 31.762 16.2133 33.377 16.8467 34.8337ZM19 22.167H6.33333C4.59167 22.167 3.16667 20.742 3.16667 19.0003C3.16667 17.2587 4.59167 15.8337 6.33333 15.8337H25.2383L19.285 21.7553C19.1583 21.882 19 22.0403 19 22.167Z" fill="#FF6B00"/>
</g>
<defs>
<clipPath id="clip0_2142_440">
<rect width="76" height="76" fill="white"/>
</clipPath>
</defs>
</svg>
