<svg width="37" height="37" viewBox="0 0 37 37" fill="none" xmlns="http://www.w3.org/2000/svg">
<path id="Vector" d="M37 18.5C37 23.4065 35.0509 28.1121 31.5815 31.5815C28.1121 35.0509 23.4065 37 18.5 37C13.5935 37 8.88795 35.0509 5.41852 31.5815C1.9491 28.1121 0 23.4065 0 18.5C0 13.5935 1.9491 8.88795 5.41852 5.41852C8.88795 1.9491 13.5935 0 18.5 0C23.4065 0 28.1121 1.9491 31.5815 5.41852C35.0509 8.88795 37 13.5935 37 18.5ZM27.8194 11.4931C27.6542 11.3285 27.4575 11.1989 27.2411 11.1121C27.0247 11.0252 26.793 10.9829 26.5598 10.9876C26.3267 10.9924 26.0969 11.0441 25.8842 11.1397C25.6715 11.2353 25.4802 11.3728 25.3219 11.544L17.2906 21.7768L12.4505 16.9344C12.1217 16.6281 11.6869 16.4613 11.2375 16.4692C10.7882 16.4771 10.3595 16.6592 10.0417 16.9769C9.72398 17.2947 9.54196 17.7234 9.53403 18.1727C9.5261 18.6221 9.69289 19.0569 9.99925 19.3857L16.1181 25.5069C16.283 25.6714 16.4793 25.8011 16.6953 25.8881C16.9113 25.9751 17.1427 26.0178 17.3755 26.0134C17.6084 26.0091 17.838 25.958 18.0507 25.863C18.2633 25.768 18.4547 25.6312 18.6133 25.4606L27.8448 13.9213C28.1595 13.594 28.3334 13.1564 28.3291 12.7025C28.3247 12.2485 28.1426 11.8143 27.8217 11.4931H27.8194Z" fill="#FF6B00"/>
</svg>
