<svg width="414" height="274" viewBox="0 0 414 274" fill="none" xmlns="http://www.w3.org/2000/svg">
<path d="M401.391 208.477C405.922 228.296 411.476 254.832 412.75 273.286M412.75 273.286C412.897 275.413 396.923 263.884 396.202 263.301C380.367 250.532 365.695 236.543 350.897 222.061M412.75 273.286C366.47 162.192 271.176 72.0191 200.583 58.9212C193.586 57.6231 185.973 56.2182 178.62 55.5698M178.62 55.5698C166.909 54.5371 155.856 55.4229 148.996 61.7128C142.666 67.5182 138.432 79.5919 143.857 92.3348C153.992 116.139 183.405 127.278 192.825 113.746C201.104 101.854 194.347 72.9904 178.62 55.5698ZM178.62 55.5698C178.288 55.2023 177.952 54.84 177.612 54.4829C95.6272 -31.687 12.2631 -3.23328 0.612401 63.3139" stroke="black" stroke-miterlimit="1.5" stroke-linecap="round" stroke-linejoin="round" stroke-dasharray="9 9"/>
</svg>
