<svg width="76" height="76" viewBox="0 0 76 76" fill="none" xmlns="http://www.w3.org/2000/svg">
<g id="icon-park-solid:bike">
<g id="Group">
<path id="Vector" d="M16.6253 66.5C20.1947 66.5 23.6179 65.0821 26.1418 62.5581C28.6657 60.0342 30.0837 56.611 30.0837 53.0417C30.0837 49.4723 28.6657 46.0491 26.1418 43.5252C23.6179 41.0013 20.1947 39.5833 16.6253 39.5833C13.056 39.5833 9.63277 41.0013 7.10885 43.5252C4.58492 46.0491 3.16699 49.4723 3.16699 53.0417C3.16699 56.611 4.58492 60.0342 7.10885 62.5581C9.63277 65.0821 13.056 66.5 16.6253 66.5ZM58.5837 66.5C60.455 66.5 62.308 66.1314 64.0369 65.4153C65.7658 64.6992 67.3367 63.6495 68.6599 62.3263C69.9832 61.003 71.0328 59.4321 71.7489 57.7032C72.4651 55.9744 72.8337 54.1213 72.8337 52.25C72.8337 50.3787 72.4651 48.5257 71.7489 46.7968C71.0328 45.0679 69.9832 43.497 68.6599 42.1737C67.3367 40.8505 65.7658 39.8008 64.0369 39.0847C62.308 38.3686 60.455 38 58.5837 38C54.8043 38 51.1798 39.5013 48.5074 42.1737C45.835 44.8461 44.3337 48.4707 44.3337 52.25C44.3337 56.0293 45.835 59.6539 48.5074 62.3263C51.1798 64.9987 54.8043 66.5 58.5837 66.5Z" fill="#FF6B00" stroke="#FF6B00" stroke-width="4" stroke-linecap="round" stroke-linejoin="round"/>
<path id="Vector_2" d="M30.0791 9.5H44.3291L58.5839 52.25" stroke="#FF6B00" stroke-width="4" stroke-linecap="round" stroke-linejoin="round"/>
<path id="Vector_3" d="M17.5072 52.2497L50.1635 26.5411M50.1635 23.7497H63.5775L66.5003 15.833M12.667 25.2918H23.7503M23.7503 25.333L28.9326 41.8329" stroke="#FF6B00" stroke-width="4" stroke-linecap="round" stroke-linejoin="round"/>
</g>
</g>
</svg>
