<svg width="73" height="70" viewBox="0 0 73 70" fill="none" xmlns="http://www.w3.org/2000/svg">
<g id="Sparkle / 1">
<path id="Sparkle" fill-rule="evenodd" clip-rule="evenodd" d="M1.21494 1.79319C0.92327 2.90539 0.680212 4.04175 0.582989 5.17812C0.267013 9.19169 -0.0975724 22.6589 0.0239565 25.3668C0.0239565 26.1889 0.169791 27.1077 0.510072 27.8572C1.11772 29.187 2.67329 29.2837 3.52399 28.0506C3.83997 27.6154 4.03441 27.0351 4.13163 26.479C4.399 24.8591 4.61775 23.2392 4.73928 21.6192C5.07956 16.7353 5.39554 11.8271 5.61429 6.94313C5.68721 5.3232 5.51706 3.67909 5.32262 2.05915C5.17678 0.85025 4.18025 -0.0685187 3.25663 0.00401555C2.16287 0.100728 1.4823 0.801892 1.21494 1.79319ZM34.7159 32.9455L34.7159 32.9454L34.7159 32.9454C34.8801 32.2368 35.0276 31.6004 35.2427 30.9752C38.4024 21.6908 43.4823 13.4219 49.2671 5.56401C49.9477 4.64524 50.7984 3.77483 51.7463 3.19456C52.2567 2.88024 53.2776 2.9286 53.8609 3.24291C54.2984 3.48469 54.6144 4.42764 54.5172 4.95955C54.347 5.97503 53.9824 7.0147 53.472 7.93346C50.1178 14.0022 46.7393 20.0467 43.3122 26.067C42.3042 27.8265 41.2515 29.5711 40.2008 31.3125L40.2005 31.3132L40.1998 31.3142C39.9081 31.7978 39.6165 32.2811 39.326 32.7644C38.8885 33.5139 38.4024 34.2392 37.892 34.9162C37.3329 35.6899 36.4822 36.1493 35.6315 35.6415C35.5778 35.609 35.5237 35.5774 35.4696 35.5458C34.9614 35.249 34.4649 34.9591 34.4649 33.9974C34.558 33.6267 34.6388 33.2782 34.7159 32.9455ZM67.657 69.8151L67.6565 69.815H67.6565C66.8113 69.6934 65.916 69.5645 65.0422 69.3714L65.0395 69.3708C59.8633 68.2104 54.6871 67.0501 49.5351 65.8414C48.4171 65.5754 47.3233 65.116 46.3268 64.5841C44.99 63.8829 44.5281 62.8916 44.7469 61.8036C44.9657 60.7156 45.8407 60.0386 47.3719 60.0145C48.4171 59.9903 49.5351 60.0145 50.5317 60.2562C57.0699 61.9003 63.6082 63.5928 70.1222 65.3095C70.8513 65.5029 71.6048 65.8414 72.1638 66.3249C73.5736 67.5097 73.1361 69.3714 71.3374 69.8308C70.8919 69.9377 70.4075 69.9481 69.872 69.9596C69.5603 69.9663 69.2313 69.9733 68.8826 70C68.4927 69.9354 68.0812 69.8761 67.657 69.8151Z" fill="#FF6B00"/>
</g>
</svg>
