<svg width="177" height="15" viewBox="0 0 177 15" fill="none" xmlns="http://www.w3.org/2000/svg">
<path id="Group 2 (Traced)" fill-rule="evenodd" clip-rule="evenodd" d="M116.338 12.3311C116.283 12.2693 114.889 12.3454 113.241 12.4997C111.119 12.6985 110.232 12.6736 110.204 12.4149C110.175 12.1459 110.13 12.1478 110.032 12.4217C109.948 12.6568 109.308 12.8171 108.292 12.8574C106.414 12.9322 105.083 13.0177 104.685 13.0894C104.327 13.1536 96.6061 13.5591 96.6017 13.5139C96.5999 13.4954 96.0294 13.4952 95.334 13.5133C93.6081 13.5583 93.66 13.577 93.7584 12.9451C93.8255 12.5149 93.7666 12.5485 93.5089 13.0868C93.2501 13.6276 92.9827 13.778 92.3592 13.7333C91.9124 13.7014 91.1603 13.6985 90.6875 13.7267C90.1365 13.7598 89.8136 13.6283 89.7873 13.3603C89.7386 12.8639 89.3487 12.8359 89.2797 13.3239C89.2533 13.5115 88.9247 13.6857 88.5494 13.7111C86.2577 13.8666 85.7837 13.8393 85.6021 13.5415C85.4612 13.3101 85.4109 13.3283 85.4353 13.6025C85.4599 13.878 85.0041 14.0408 83.9104 14.1481C83.0522 14.2322 82.2756 14.2171 82.1844 14.1145C82.0932 14.0119 81.1124 13.968 80.0046 14.0167C75.557 14.2132 74.6578 14.1844 74.2842 13.8339C74.0697 13.6328 73.9069 13.5965 73.9222 13.7531C73.9376 13.91 73.7563 14.057 73.5196 14.0802C73.2623 14.1054 73.1183 13.9554 73.1621 13.7081C73.2611 13.1452 73.0561 13.2059 72.6769 13.8514C72.395 14.3311 72.2574 14.3481 71.325 14.0178C70.7515 13.8148 70.1657 13.7756 70.016 13.9303C69.8668 14.0847 69.6273 14.1639 69.4834 14.1064C69.3395 14.0493 68.6506 13.9958 67.9526 13.9878C65.269 13.9569 63.8951 13.8748 63.5475 13.7242C63.3489 13.6385 62.6601 13.6467 62.0168 13.7428C61.3735 13.8388 60.7748 13.791 60.6867 13.6371C60.5983 13.4829 60.2851 13.4461 59.9902 13.5555C59.6955 13.6646 58.8464 13.6429 58.1029 13.5076C57.3597 13.372 56.2731 13.2542 55.6885 13.2456C55.1038 13.237 54.31 13.1878 53.9247 13.1362C53.5393 13.0847 52.6 13.0253 51.8373 13.0041C49.4491 12.9384 45.6749 12.5372 45.3523 12.3148C45.2377 12.236 44.6097 12.1788 43.957 12.1879C42.4804 12.2085 41.882 12.0878 40.9686 11.5849C40.5583 11.359 40.2637 11.3254 40.2815 11.5068C40.3183 11.8828 38.3803 11.7052 38.2313 11.319C38.1779 11.1804 37.9944 11.1591 37.8234 11.2719C37.6244 11.4032 37.4928 11.2739 37.4574 10.9127C37.4049 10.3767 37.3896 10.3788 37.1511 10.9573C36.9872 11.3542 36.7833 11.485 36.5645 11.3332C36.38 11.2052 35.9115 11.0845 35.5235 11.0645C35.1355 11.0449 34.7729 10.9002 34.7171 10.7431C34.6578 10.575 34.4161 10.5882 34.1305 10.7753C33.6884 11.0645 31.769 10.7885 30.7116 10.2835C30.5121 10.1883 30.2132 10.1559 30.0476 10.2111C29.8599 10.2738 29.7977 10.1589 29.8827 9.90659C29.9823 9.61042 29.9081 9.5803 29.6067 9.79519C29.0089 10.2213 27.7483 10.1944 26.9527 9.73853C26.5734 9.52129 25.9386 9.37535 25.5421 9.41423C25.1453 9.45312 23.957 9.28699 22.9014 9.04512C21.8456 8.80358 20.6921 8.55737 20.3376 8.49834C19.955 8.43478 19.6732 8.18707 19.644 7.88832C19.603 7.47031 19.5415 7.45892 19.282 7.82115C19.0449 8.15171 18.8963 8.17547 18.6694 7.92017C18.5043 7.73452 18.1271 7.60643 17.8313 7.63543C16.8042 7.73611 15.1967 7.19475 15.1514 6.73282C15.1258 6.47172 15.0055 6.38626 14.8661 6.53014C14.7336 6.66701 14.4611 6.53245 14.2605 6.23085C14.0601 5.9289 13.9125 5.85054 13.9327 6.05609C13.9528 6.26164 13.7125 6.45502 13.3986 6.48579C13.0847 6.51656 12.8125 6.38546 12.7938 6.19434C12.7751 6.00323 12.6058 5.94853 12.4179 6.07246C11.8044 6.47731 10.9392 6.078 10.8601 5.35387C10.7885 4.69587 10.7815 4.69528 10.5115 5.32436C10.2389 5.96004 10.2355 5.96037 10.173 5.35755C10.1261 4.90781 10.0702 4.86227 9.95878 5.18306C9.83543 5.53765 9.63527 5.53668 8.86684 5.17699C8.34938 4.93465 7.44551 4.59711 6.85834 4.42655C4.4172 3.7182 3.50954 3.17509 3.6073 2.48179C3.63603 2.27873 3.52509 2.01935 3.36086 1.90523C3.17118 1.77365 3.13467 1.82444 3.26086 2.0443C3.8913 3.14528 2.15223 3.04835 1.27477 1.93388C1.01755 1.6071 0.815924 1.52294 0.786683 1.73016C0.759376 1.92421 0.554005 1.72192 0.330277 1.28065C-0.0177674 0.593971 -0.034079 0.434621 0.216652 0.175587C0.640036 -0.261955 1.37759 0.274061 1.47682 1.09126C1.55066 1.69868 1.57454 1.71186 1.66897 1.19631C1.79717 0.498434 2.07451 0.409781 2.3984 0.962903C2.55786 1.23527 2.62206 1.24356 2.59962 0.988806C2.57558 0.717736 2.75138 0.721727 3.23836 1.0035C3.60803 1.21724 4.09026 1.37528 4.31 1.35501C4.52971 1.33442 4.73003 1.52515 4.75489 1.77872C4.78239 2.05927 4.92691 2.15568 5.1248 2.02539C5.30339 1.90745 5.63943 1.89795 5.87177 2.00381C6.1039 2.11001 6.55376 2.21767 6.87132 2.24294C7.71577 2.31066 8.58502 2.89935 8.50544 3.35008C8.46542 3.57673 8.59445 3.69145 8.81219 3.62258C9.01899 3.55732 9.28011 3.72404 9.39269 3.99309C9.57061 4.41858 9.59231 4.40948 9.55877 3.92389C9.52787 3.47702 9.67074 3.38033 10.2764 3.4385C12.2907 3.63202 14.2104 4.46879 14.1184 5.11274C14.0738 5.42475 14.1415 5.46849 14.3431 5.258C14.7358 4.84818 15.2236 4.71798 15.5387 4.93929C15.6825 5.0402 16.0074 5.11925 16.2605 5.11471C16.6505 5.10816 18.3514 5.41732 20.8366 5.94678C21.1602 6.01548 21.6896 6.12581 22.013 6.19201C22.3364 6.25789 22.6918 6.45973 22.8027 6.64086C22.9398 6.86472 22.9924 6.83866 22.9675 6.5588C22.9471 6.33268 23.0516 6.23151 23.1995 6.33424C23.3473 6.43666 23.4442 6.7874 23.4148 7.11313C23.3554 7.76751 23.708 7.75988 24.1296 7.09724C24.4601 6.57755 24.7861 6.53863 26.1252 6.86012C26.702 6.99842 27.1918 7.29418 27.2136 7.5173C27.2541 7.92965 27.8 7.91194 28.0475 7.49069C28.1221 7.36361 28.3365 7.40374 28.5238 7.57928C28.7754 7.81538 28.8551 7.80376 28.8288 7.53544C28.8045 7.2869 28.9283 7.25258 29.2215 7.42693C29.7196 7.72282 30.8717 7.92196 32.2851 7.95545C32.8336 7.96885 33.4302 8.1179 33.6107 8.28745C33.7914 8.45667 34.3955 8.60688 34.9532 8.62064C35.5112 8.63469 36.0461 8.6526 36.1418 8.66064C36.2376 8.66837 36.3476 8.92118 36.3859 9.22254C36.4432 9.67062 36.4757 9.68201 36.5648 9.28421C36.674 8.79858 37.6981 8.56448 38.4089 8.86296C38.9154 9.07565 40.83 9.23712 42.5732 9.2142C43.3858 9.20361 44.1861 9.32191 44.3516 9.4771C44.5171 9.63228 44.8975 9.72268 45.1969 9.6778C46.0723 9.54699 50.1341 9.88737 50.2835 10.104C50.3586 10.2133 50.6767 10.2752 50.9904 10.2422C51.304 10.209 51.7602 10.3645 52.0039 10.588C52.3429 10.8986 52.4378 10.9 52.4079 10.5947C52.3814 10.3251 52.5422 10.2508 52.9039 10.3648C53.1984 10.458 53.7638 10.4868 54.1606 10.4289C54.5573 10.371 54.9616 10.4625 55.0587 10.632C55.1752 10.8354 55.3662 10.8234 55.6185 10.5968C55.8293 10.4076 56.0823 10.3435 56.1808 10.4546C56.2795 10.5653 56.7946 10.6542 57.3253 10.6516C58.8507 10.6446 60.5883 10.6844 60.7186 10.7296C60.7842 10.7523 61.1692 10.7133 61.5744 10.6425C61.9966 10.5688 62.3258 10.6658 62.3458 10.8701C62.365 11.0662 62.4749 11.1293 62.59 11.0103C62.7051 10.8913 62.814 10.9437 62.8319 11.1263C62.8498 11.3089 62.9733 11.448 63.1062 11.4349C63.2391 11.4219 63.2707 11.2762 63.1761 11.1112C63.0816 10.9463 63.2159 10.7905 63.4743 10.7652C63.7328 10.7399 63.9548 10.8258 63.9676 10.956C63.9804 11.0866 64.6857 11.1382 65.5346 11.0708C66.3836 11.0037 67.4997 11.0138 68.0146 11.0932C68.5294 11.1723 69.1862 11.202 69.4742 11.1589C69.7984 11.1103 69.952 11.2169 69.8771 11.4385C69.7905 11.696 69.8791 11.6867 70.192 11.4057C70.6889 10.959 72.6994 10.6837 72.736 11.0571C72.7734 11.4391 73.7449 11.3543 74.0395 10.9433C74.2135 10.7007 74.313 10.6858 74.334 10.8995C74.3514 11.0772 74.5638 11.1283 74.8061 11.0136C75.0484 10.8986 75.2586 10.9271 75.2733 11.0765C75.2879 11.2262 76.0159 11.2597 76.8907 11.1508C78.0204 11.0103 78.4469 11.0603 78.3616 11.3234C78.2956 11.5273 78.3963 11.4829 78.5857 11.2254C78.775 10.9677 78.942 10.88 78.9568 11.0306C78.9717 11.1809 79.6703 11.2417 80.5092 11.1655C81.5256 11.0732 82.0794 11.1554 82.1689 11.4122C82.2721 11.7075 82.3697 11.7045 82.5877 11.4006C82.7443 11.1824 82.8859 11.1271 82.9025 11.2775C82.9193 11.4276 83.0068 11.3379 83.097 11.0775C83.2283 10.6984 83.3819 10.6643 83.868 10.9063C84.3308 11.1365 84.493 11.1165 84.5502 10.8213C84.5991 10.5694 84.7017 10.5375 84.8446 10.7298C84.9651 10.8922 85.5271 10.9892 86.0932 10.9451C86.6594 10.901 87.3871 10.9187 87.7105 10.9843C88.0338 11.0498 88.4111 10.953 88.5488 10.7687C88.7125 10.5502 89.0338 10.5193 89.4748 10.6798C89.8462 10.8148 90.5893 10.8269 91.1263 10.7065C91.6632 10.5857 92.4369 10.578 92.8458 10.6887C93.2545 10.7998 93.7954 10.7588 94.0476 10.5975C94.44 10.3471 94.5003 10.4052 94.4651 10.9983C94.4333 11.5346 94.4664 11.5846 94.6107 11.2181C94.8412 10.6331 96.1712 10.3114 96.2265 10.8269C96.2494 11.0394 96.3399 10.9868 96.4413 10.7019C96.5376 10.4311 96.6301 10.3326 96.6468 10.4828C96.6634 10.6332 96.8059 10.5768 96.9632 10.3573C97.2909 9.90034 97.6897 10.3498 97.488 10.9491C97.421 11.1479 97.6141 11.039 97.9172 10.7071C98.4173 10.1593 98.9173 10.0825 103.338 9.87439C106.016 9.74839 108.438 9.61586 108.72 9.57999C109.002 9.54444 109.245 9.64136 109.26 9.79576C109.275 9.95015 109.447 10.0606 109.643 10.0414C109.839 10.0222 109.928 9.88294 109.842 9.73206C109.616 9.33756 112.402 9.28053 112.75 9.67251C112.937 9.88264 113.166 9.88046 113.405 9.66603C113.606 9.48468 114.117 9.29777 114.539 9.25072C114.961 9.20334 115.739 9.08773 116.269 8.9937C116.997 8.86403 117.244 8.9371 117.281 9.29272C117.318 9.64047 117.367 9.65747 117.472 9.35798C117.622 8.92696 118.642 8.79212 125.022 8.35833C129.254 8.07092 128.897 8.10236 131.859 7.75284C133.58 7.54957 134.269 7.57774 134.365 7.85561C134.439 8.06608 134.593 8.22933 134.708 8.21805C134.823 8.20677 134.874 8.02338 134.822 7.81086C134.706 7.34034 136.226 7.12063 136.523 7.5649C136.647 7.75047 136.709 7.71842 136.688 7.47907C136.667 7.24382 136.963 7.08201 137.457 7.05898C137.898 7.03881 138.27 7.13223 138.284 7.26717C138.297 7.4018 138.531 7.41145 138.804 7.28899C139.545 6.95629 143.909 6.58552 144.255 6.82565C144.445 6.95752 144.483 6.90817 144.359 6.69128C144.078 6.20172 145.858 6.23067 146.384 6.72434C146.733 7.05107 146.789 7.03918 146.751 6.64879C146.719 6.32211 146.939 6.17797 147.502 6.15663C147.94 6.13968 148.366 6.20245 148.449 6.29571C148.532 6.38928 148.967 6.31112 149.416 6.12201C149.865 5.93321 150.678 5.81802 151.224 5.86659C152.093 5.94361 152.228 6.05488 152.322 6.77215C152.426 7.56353 152.431 7.55923 152.483 6.64576C152.536 5.7272 152.578 5.69553 154.013 5.48133C154.825 5.36024 155.688 5.18149 155.932 5.08469C156.176 4.98758 156.494 5.0129 156.637 5.14075C156.915 5.38792 157.417 5.30601 157.764 4.95744C157.879 4.84126 158.288 4.7787 158.672 4.81834C159.056 4.85768 159.471 4.85914 159.594 4.82172C159.718 4.78431 160.841 4.60229 162.09 4.4177C163.34 4.2328 164.698 3.95996 165.108 3.8111C165.648 3.61494 165.988 3.67731 166.34 4.03724C166.658 4.36188 166.813 4.40017 166.789 4.14755C166.764 3.89963 167.031 3.76673 167.533 3.77705C167.964 3.78555 168.47 3.57784 168.658 3.31544C168.952 2.90515 169.036 2.89851 169.252 3.26799C169.427 3.56675 169.493 3.57832 169.469 3.30568C169.449 3.0896 169.646 2.89226 169.905 2.86682C170.28 2.83005 170.365 2.9681 170.319 3.53911C170.287 3.93417 170.303 4.07523 170.354 3.85257C170.404 3.62962 170.547 3.43763 170.669 3.42564C170.792 3.41362 170.843 3.58667 170.783 3.81052C170.723 4.03406 170.839 3.86294 171.042 3.42962C171.357 2.75587 171.438 2.71372 171.602 3.13706C171.839 3.74753 172.416 3.73087 172.525 3.11026C172.608 2.63987 172.998 2.56431 173.505 2.91987C173.861 3.17039 174.542 2.75952 174.732 2.17983C174.921 1.60211 175.98 1.51188 176.035 2.0689C176.099 2.72791 175.631 3.22276 174.661 3.51997C174.179 3.66774 173.487 3.93988 173.125 4.1243C172.763 4.30872 172.312 4.47612 172.124 4.49646C171.936 4.51649 171.534 4.65374 171.232 4.80157C170.368 5.22339 168.336 5.87472 167.098 6.12658C166.476 6.25308 165.514 6.48903 164.96 6.65111C164.405 6.8132 162.263 7.18378 160.2 7.47505C158.137 7.766 155.941 8.11463 155.321 8.24929C152.494 8.86346 147.415 9.4751 147.032 9.24715C146.8 9.10923 146.497 9.11461 146.357 9.25852C146.218 9.40271 145.577 9.48034 144.935 9.43088C144.292 9.3814 143.73 9.44791 143.686 9.57862C143.606 9.81684 116.526 12.5424 116.338 12.3311ZM146.798 8.30029C146.858 8.12009 146.799 7.98332 146.666 7.99635C146.533 8.00937 146.438 8.16126 146.455 8.33386C146.472 8.50646 146.531 8.64325 146.587 8.63781C146.642 8.63237 146.737 8.4805 146.798 8.30029ZM158.006 6.2511C157.838 5.91909 157.662 5.65115 157.615 5.65574C157.569 5.66031 157.612 5.94119 157.711 6.27997C157.811 6.61872 157.987 6.88663 158.102 6.87533C158.218 6.86399 158.175 6.58464 158.006 6.2511ZM139.058 8.10853C139.041 7.93593 138.982 7.79915 138.926 7.80458C138.871 7.81002 138.776 7.96189 138.715 8.1421C138.654 8.32231 138.714 8.45907 138.847 8.44605C138.979 8.43302 139.075 8.28113 139.058 8.10853ZM105.222 10.9313C105.196 10.6624 105.08 10.5394 104.965 10.6584C104.85 10.7774 104.769 11.0075 104.785 11.17C104.801 11.3326 104.916 11.4553 105.042 11.443C105.168 11.4306 105.249 11.2003 105.222 10.9313ZM173.426 2.51665C173.33 2.34897 173.164 2.30221 173.056 2.41315C172.949 2.52377 172.847 2.46473 172.829 2.28209C172.782 1.80227 173.144 1.83904 173.527 2.35335C173.709 2.59692 173.8 2.8019 173.729 2.80883C173.658 2.81575 173.522 2.68436 173.426 2.51665ZM65.468 12.1539C65.451 11.9813 65.392 11.8445 65.3365 11.85C65.281 11.8554 65.1862 12.0073 65.1255 12.1875C65.0648 12.3677 65.1241 12.5045 65.257 12.4914C65.3898 12.4784 65.4849 12.3265 65.468 12.1539ZM7.01477 3.24084C6.82903 3.03187 6.72083 3.02379 6.74009 3.22024C6.78116 3.63919 7.08762 3.98396 7.21934 3.7594C7.27544 3.66392 7.18342 3.43056 7.01477 3.24084Z" fill="#FF6B00"/>
</svg>
