<svg width="175" height="24" viewBox="0 0 175 24" fill="none" xmlns="http://www.w3.org/2000/svg">
<path id="Group 2 (Traced)" fill-rule="evenodd" clip-rule="evenodd" d="M114.587 0.140121C114.538 0.206969 113.144 0.267193 111.488 0.274446C109.357 0.28359 108.477 0.394898 108.474 0.655038C108.472 0.925583 108.426 0.928104 108.302 0.665127C108.196 0.439358 107.543 0.34224 106.528 0.401204C104.652 0.50999 103.319 0.554766 102.915 0.522288C102.553 0.493279 94.8292 0.842968 94.8292 0.888374C94.8292 0.906978 94.2615 0.962791 93.5676 1.01261C91.8456 1.13622 91.8953 1.11257 92.055 1.73186C92.1637 2.15344 92.1018 2.12569 91.7928 1.61519C91.4825 1.10216 91.2017 0.978557 90.5855 1.08387C90.144 1.15924 89.3957 1.23554 88.9225 1.25352C88.3708 1.27433 88.0623 1.43672 88.0623 1.706C88.0623 2.20484 87.6769 2.27074 87.5606 1.79177C87.5161 1.60762 87.172 1.46636 86.7961 1.47771C84.5001 1.54645 84.031 1.61992 83.8794 1.93398C83.7617 2.17804 83.7099 2.16479 83.7074 1.88952C83.7051 1.61298 83.2355 1.49537 82.1365 1.49537C81.2743 1.49537 80.5028 1.58618 80.4221 1.69717C80.3413 1.80816 79.3694 1.94754 78.2622 2.00713C73.8167 2.24551 72.9246 2.36187 72.5869 2.74719C72.3931 2.96823 72.2346 3.02026 72.2346 2.86291C72.2346 2.70525 72.0398 2.5766 71.802 2.5766C71.5434 2.5766 71.4147 2.73994 71.4824 2.98179C71.6359 3.53234 71.426 3.49198 70.9856 2.88656C70.6582 2.4366 70.5197 2.43313 69.6239 2.85282C69.0729 3.11075 68.4937 3.20693 68.3297 3.06756C68.1662 2.9285 67.92 2.873 67.7824 2.94427C67.6448 3.01521 66.9644 3.13566 66.2705 3.21166C63.6027 3.50427 62.2434 3.71995 61.9122 3.90379C61.7229 4.00847 61.0366 4.06744 60.387 4.03464C59.7373 4.00185 59.1462 4.1078 59.0735 4.26956C59.0005 4.43163 58.6925 4.4988 58.3883 4.4187C58.0844 4.33893 57.2414 4.4433 56.5147 4.65046C55.7882 4.85794 54.7183 5.08119 54.1373 5.14678C53.5563 5.21237 52.7711 5.33881 52.3926 5.42773C52.0141 5.51665 51.0851 5.66737 50.3281 5.76291C47.9576 6.06121 44.2406 6.8287 43.9413 7.08159C43.8349 7.17114 43.2155 7.28938 42.565 7.34393C41.0934 7.46754 40.5097 7.64601 39.6497 8.23566C39.2634 8.50053 38.9734 8.56265 38.9734 8.38039C38.9734 8.00264 37.062 8.36841 36.9514 8.76729C36.9117 8.91044 36.7312 8.94954 36.55 8.854C36.3392 8.74269 36.2208 8.88427 36.2208 9.24721C36.2208 9.78577 36.2054 9.78514 35.9116 9.2327C35.7097 8.85369 35.4941 8.74332 35.2911 8.9158C35.12 9.06117 34.6656 9.22703 34.2813 9.28473C33.8971 9.34212 33.5503 9.52154 33.5101 9.6833C33.4675 9.85641 33.2257 9.86681 32.9231 9.70852C32.455 9.46383 30.5717 9.92578 29.5686 10.5315C29.3793 10.6457 29.085 10.7071 28.9148 10.6684C28.7219 10.6242 28.6712 10.7447 28.7804 10.9875C28.9084 11.2725 28.8375 11.3097 28.5166 11.1253C27.8801 10.7595 26.6281 10.9093 25.8807 11.4406C25.5245 11.6938 24.907 11.9009 24.5085 11.9009C24.1099 11.9009 22.9434 12.1822 21.9165 12.5259C20.8893 12.8693 19.7653 13.2269 19.4182 13.3202C19.0436 13.4208 18.7874 13.6948 18.7874 13.995C18.7874 14.415 18.7273 14.4323 18.4337 14.0971C18.1655 13.7913 18.0153 13.7821 17.8143 14.0584C17.6682 14.2592 17.3053 14.4235 17.008 14.4235C15.976 14.4235 14.429 15.1191 14.429 15.5833C14.429 15.8456 14.3175 15.9424 14.1648 15.8128C14.0196 15.6895 13.7615 15.85 13.5913 16.1698C13.4213 16.4898 13.2821 16.5822 13.2821 16.3757C13.2821 16.1691 13.024 16.0001 12.7086 16.0001C12.3932 16.0001 12.1352 16.1571 12.1352 16.3492C12.1352 16.5412 11.9721 16.6121 11.773 16.5071C11.1229 16.1641 10.3007 16.6459 10.2927 17.3743C10.2856 18.0361 10.2787 18.0374 9.94864 17.4377C9.61534 16.8316 9.6119 16.8316 9.60846 17.4377C9.60571 17.8898 9.55455 17.9406 9.41233 17.6322C9.25497 17.2913 9.05587 17.3118 8.32618 17.7448C7.83484 18.0364 6.96821 18.4606 6.40048 18.6876C4.04009 19.6307 3.18975 20.2598 3.35468 20.9402C3.40308 21.1395 3.31798 21.4085 3.16566 21.5381C2.98972 21.6875 2.94843 21.6406 3.05257 21.4094C3.5726 20.2522 1.85127 20.5183 1.08673 21.7131C0.862616 22.0634 0.670161 22.1668 0.620842 21.9635C0.574736 21.773 0.390079 21.9944 0.210469 22.4554C-0.068925 23.1727 -0.0696128 23.3329 0.205193 23.5662C0.669243 23.9604 1.35098 23.355 1.37002 22.532C1.38424 21.9203 1.40672 21.9048 1.55101 22.4087C1.74667 23.0907 2.03134 23.1519 2.29973 22.5698C2.43185 22.2832 2.49494 22.2687 2.49746 22.5244C2.49998 22.7965 2.67454 22.7754 3.13171 22.4475C3.47878 22.1987 3.94329 21.9944 4.16396 21.9931C4.38463 21.9921 4.56538 21.7828 4.56538 21.528C4.56538 21.2461 4.6998 21.1361 4.90946 21.2464C5.09871 21.3464 5.43407 21.323 5.65497 21.195C5.87564 21.0667 6.31285 20.9156 6.62643 20.8595C7.46025 20.7097 8.26792 20.0391 8.14474 19.5982C8.0828 19.3766 8.20002 19.2498 8.42344 19.2971C8.63563 19.3419 8.87924 19.1505 8.96503 18.8717C9.1006 18.4309 9.12308 18.4379 9.13707 18.9244C9.14991 19.3721 9.30154 19.4544 9.89863 19.3375C11.8844 18.9484 13.7133 17.9283 13.559 17.2964C13.4842 16.9902 13.5473 16.9401 13.7684 17.1299C14.1992 17.4995 14.6974 17.5814 14.9894 17.3304C15.1227 17.216 15.4383 17.1056 15.6907 17.0854C16.0795 17.0539 17.7421 16.5803 20.1637 15.8109C20.4791 15.711 20.9952 15.5495 21.3106 15.4521C21.626 15.355 21.96 15.1194 22.0527 14.9283C22.1674 14.6922 22.2222 14.713 22.2247 14.9939C22.2266 15.221 22.3404 15.3115 22.4775 15.1948C22.6147 15.0784 22.6769 14.7199 22.6159 14.3986C22.4929 13.7531 22.8446 13.7263 23.3288 14.3447C23.7084 14.8296 24.0367 14.8366 25.338 14.386C25.8986 14.1921 26.3572 13.8499 26.3572 13.6257C26.3572 13.2114 26.9022 13.1758 27.1896 13.5709C27.2763 13.6901 27.4857 13.6292 27.655 13.4362C27.8824 13.1767 27.9629 13.1805 27.9629 13.4501C27.9629 13.6998 28.0895 13.7219 28.3643 13.5198C28.8311 13.1767 29.9583 12.8661 31.3617 12.6949C31.9063 12.6281 32.4855 12.4215 32.6486 12.2352C32.8119 12.0491 33.3984 11.8407 33.9522 11.7726C34.5061 11.7042 35.0367 11.6342 35.1312 11.6168C35.2257 11.5998 35.3106 11.3375 35.3193 11.0338C35.3326 10.5823 35.3638 10.5678 35.4914 10.955C35.6473 11.4276 36.6894 11.5607 37.3677 11.1943C37.8511 10.9332 39.7407 10.5857 41.4779 10.4385C42.2876 10.3697 43.0726 10.1739 43.2222 10.0033C43.3717 9.83276 43.7415 9.70568 44.0438 9.72113C44.9279 9.76591 48.9371 9.0309 49.0646 8.80071C49.1286 8.68468 49.4392 8.59197 49.7546 8.59418C50.07 8.5967 50.5089 8.39742 50.7295 8.15115C51.0367 7.80903 51.131 7.79831 51.131 8.10512C51.131 8.37598 51.2982 8.43431 51.6471 8.28548C51.9311 8.16408 52.491 8.08021 52.8915 8.09912C53.292 8.11804 53.6854 7.9875 53.7655 7.80935C53.8616 7.59556 54.0529 7.58894 54.3261 7.78979C54.5543 7.95755 54.8124 7.99665 54.8996 7.87651C54.987 7.75669 55.4909 7.61795 56.0194 7.56876C57.5382 7.42686 59.2637 7.2178 59.3889 7.1601C59.452 7.13109 59.839 7.13235 60.2491 7.16325C60.6765 7.19542 60.9946 7.06676 60.9946 6.86149C60.9946 6.66442 61.0978 6.59095 61.224 6.69816C61.3502 6.80537 61.4534 6.74262 61.4534 6.5591C61.4534 6.37558 61.5628 6.22518 61.6963 6.22518C61.8298 6.22518 61.8755 6.36707 61.7975 6.5405C61.7195 6.71392 61.8683 6.85582 62.128 6.85582C62.3877 6.85582 62.6003 6.74861 62.6003 6.61775C62.6003 6.48658 63.2972 6.36644 64.1487 6.35067C65.0002 6.33459 66.1099 6.21571 66.6146 6.08643C67.1192 5.95747 67.77 5.86382 68.0609 5.87864C68.3882 5.89535 68.5307 5.77427 68.4345 5.56111C68.3233 5.31327 68.4123 5.3139 68.7511 5.563C69.2892 5.95905 71.317 6.03693 71.317 5.6617C71.317 5.27795 72.2922 5.26755 72.6255 5.64782C72.8223 5.87233 72.9227 5.87738 72.9227 5.66264C72.9227 5.48417 73.1292 5.41259 73.3815 5.50309C73.6338 5.5939 73.8403 5.54503 73.8403 5.39494C73.8403 5.24453 74.5615 5.14016 75.4428 5.16318C76.5808 5.19282 77.0003 5.10137 76.8898 4.84786C76.8042 4.65141 76.9088 4.68578 77.1224 4.92353C77.3359 5.1616 77.5107 5.23255 77.5107 5.08119C77.5109 4.93015 78.2002 4.8015 79.0426 4.79551C80.0631 4.78826 80.6063 4.65236 80.6703 4.38812C80.7441 4.08415 80.8416 4.07753 81.0882 4.35879C81.2653 4.5606 81.4117 4.60191 81.4135 4.45055C81.4156 4.29951 81.5115 4.38023 81.6266 4.6306C81.7943 4.99511 81.9505 5.01403 82.4107 4.72583C82.8488 4.4515 83.0121 4.4556 83.0979 4.7438C83.1711 4.98975 83.2764 5.01151 83.3998 4.80623C83.5039 4.63281 84.0537 4.48145 84.6215 4.4701C85.1892 4.45875 85.9118 4.37014 86.2272 4.27334C86.5426 4.17654 86.9275 4.23613 87.0826 4.40609C87.2668 4.60758 87.5895 4.60695 88.0127 4.4042C88.3692 4.23361 89.1076 4.1491 89.6538 4.21658C90.1999 4.28438 90.9707 4.21658 91.3668 4.06649C91.7628 3.91608 92.305 3.9041 92.5718 4.04C92.9868 4.25095 93.0411 4.18726 92.9482 3.60045C92.8643 3.06976 92.8923 3.01679 93.0716 3.36742C93.3582 3.92712 94.7131 4.11757 94.718 3.59918C94.72 3.3854 94.8152 3.42891 94.9439 3.70261C95.0662 3.96275 95.1678 4.05167 95.1698 3.90063C95.1717 3.74928 95.319 3.79153 95.497 3.9946C95.8676 4.41744 96.2207 3.93122 95.9615 3.3545C95.8754 3.1631 96.0782 3.25265 96.4122 3.55346C96.9634 4.04978 97.4685 4.07753 101.888 3.85333C104.566 3.71743 106.989 3.61306 107.273 3.62126C107.557 3.62914 107.79 3.509 107.79 3.35387C107.79 3.19873 107.951 3.07197 108.147 3.07197C108.344 3.07197 108.446 3.20188 108.375 3.36049C108.189 3.77513 110.967 3.56009 111.276 3.13598C111.441 2.90863 111.669 2.88845 111.927 3.07859C112.146 3.23941 112.672 3.37562 113.096 3.3813C113.521 3.38729 114.307 3.42639 114.843 3.46833C115.58 3.52635 115.819 3.42954 115.822 3.07197C115.824 2.72228 115.872 2.70052 116.005 2.98841C116.196 3.40274 117.225 3.43743 123.617 3.24666C127.856 3.1199 127.499 3.12337 130.48 3.18233C132.213 3.2167 132.896 3.12147 132.965 2.83548C133.017 2.61885 133.155 2.44133 133.271 2.44133C133.386 2.44133 133.455 2.61885 133.424 2.83548C133.354 3.31508 134.889 3.3854 135.141 2.91431C135.246 2.71755 135.31 2.74341 135.313 2.98368C135.315 3.21986 135.625 3.35197 136.119 3.32675C136.56 3.30373 136.922 3.17445 136.922 3.03886C136.922 2.90359 137.154 2.87111 137.438 2.96634C138.207 3.22522 142.587 3.16846 142.908 2.89571C143.084 2.74593 143.127 2.79133 143.024 3.01931C142.793 3.53391 144.561 3.33148 145.037 2.78881C145.351 2.42966 145.409 2.43597 145.409 2.82823C145.409 3.15647 145.642 3.2785 146.205 3.24476C146.642 3.21891 147.06 3.11485 147.134 3.01395C147.207 2.91273 147.648 2.94805 148.113 3.09247C148.578 3.23657 149.399 3.27188 149.937 3.17035C150.794 3.0089 150.918 2.88498 150.941 2.16195C150.968 1.36419 150.973 1.36798 151.114 2.272C151.256 3.18107 151.301 3.2085 152.75 3.28166C153.57 3.32297 154.447 3.41661 154.699 3.48914C154.952 3.56198 155.265 3.50585 155.395 3.36459C155.647 3.09152 156.156 3.124 156.534 3.43711C156.661 3.54148 157.073 3.56387 157.452 3.48693C157.83 3.41031 158.243 3.36837 158.369 3.3936C158.496 3.41882 159.631 3.4904 160.893 3.5522C162.154 3.61432 163.532 3.75338 163.955 3.86153C164.512 4.00406 164.844 3.90883 165.159 3.51626C165.444 3.16215 165.595 3.10886 165.595 3.36269C165.595 3.6118 165.873 3.71806 166.372 3.65878C166.8 3.60833 167.324 3.76568 167.537 4.00847C167.869 4.38812 167.953 4.38654 168.132 3.99775C168.277 3.68338 168.342 3.6654 168.344 3.9391C168.346 4.15604 168.561 4.33325 168.822 4.33325C169.199 4.33325 169.27 4.18757 169.168 3.62378C169.098 3.23373 169.099 3.09183 169.172 3.30846C169.244 3.5254 169.404 3.70261 169.527 3.70261C169.65 3.70261 169.684 3.5254 169.603 3.30846C169.522 3.09183 169.654 3.25076 169.898 3.66225C170.278 4.30204 170.362 4.33609 170.485 3.89874C170.66 3.2681 171.236 3.22837 171.406 3.83536C171.534 4.29541 171.929 4.33262 172.399 3.92933C172.729 3.64522 173.447 3.98766 173.692 4.54609C173.937 5.10263 175 5.08908 175 4.52938C175 3.86721 174.486 3.4204 173.492 3.21923C172.997 3.11927 172.282 2.91589 171.903 2.76769C171.525 2.61949 171.06 2.49682 170.871 2.49493C170.682 2.49336 170.269 2.39592 169.953 2.27831C169.052 1.94281 166.966 1.49285 165.71 1.36293C165.079 1.29766 164.098 1.15671 163.531 1.0495C162.963 0.942294 160.795 0.782427 158.714 0.693822C156.632 0.605533 154.413 0.472783 153.782 0.399314C150.909 0.0638126 145.794 -0.0493872 145.435 0.214851C145.218 0.374719 144.915 0.398997 144.762 0.269401C144.609 0.139489 143.965 0.12467 143.33 0.236609C142.695 0.348547 142.129 0.337195 142.073 0.211382C141.97 -0.0178556 114.753 -0.0884868 114.587 0.140121ZM145.294 1.18005C145.372 1.35347 145.327 1.49537 145.193 1.49537C145.06 1.49537 144.95 1.35347 144.95 1.18005C144.95 1.00662 144.996 0.864726 145.051 0.864726C145.107 0.864726 145.216 1.00662 145.294 1.18005ZM156.649 2.12601C156.514 2.47286 156.365 2.75665 156.318 2.75665C156.271 2.75665 156.287 2.47286 156.353 2.12601C156.419 1.77916 156.568 1.49537 156.684 1.49537C156.8 1.49537 156.785 1.77758 156.649 2.12601ZM137.61 2.12601C137.61 2.29943 137.564 2.44133 137.509 2.44133C137.453 2.44133 137.344 2.29943 137.266 2.12601C137.188 1.95258 137.233 1.81069 137.367 1.81069C137.5 1.81069 137.61 1.95258 137.61 2.12601ZM103.661 2.61759C103.661 2.88782 103.557 3.02152 103.431 2.91431C103.305 2.8071 103.202 2.58606 103.202 2.42273C103.202 2.25939 103.305 2.12601 103.431 2.12601C103.557 2.12601 103.661 2.34736 103.661 2.61759ZM172.36 4.3383C172.28 4.51456 172.12 4.57731 172.002 4.47735C171.885 4.37771 171.789 4.44645 171.789 4.62997C171.789 5.11209 172.145 5.0402 172.477 4.49091C172.634 4.23077 172.704 4.01793 172.633 4.01793C172.562 4.01793 172.439 4.16203 172.36 4.3383ZM63.9766 5.27921C63.9766 5.45264 63.9312 5.59453 63.8755 5.59453C63.8197 5.59453 63.7106 5.45264 63.6326 5.27921C63.5546 5.10579 63.6002 4.96389 63.7337 4.96389C63.8672 4.96389 63.9766 5.10579 63.9766 5.27921ZM6.67184 19.8524C6.50737 20.0785 6.40048 20.0971 6.40048 19.8997C6.40048 19.4787 6.67184 19.1057 6.82485 19.3163C6.88999 19.4059 6.82118 19.6471 6.67184 19.8524Z" fill="#FF6B00"/>
</svg>
