<svg width="144" height="133" viewBox="0 0 144 133" fill="none" xmlns="http://www.w3.org/2000/svg">
<path id="Vector" d="M1.48583 109.912C3.91412 116.511 7.38709 125.28 10.9229 131.035M10.9229 131.035C11.3301 131.698 15.69 126.091 15.8732 125.819C19.8983 119.854 23.1498 113.675 26.3467 107.329M10.9229 131.035C6.34834 91.2715 27.619 51.3427 55.2692 38.0188C58.0097 36.6983 60.9931 35.2637 64.0319 34.0925M64.0319 34.0925C68.8713 32.2274 73.8509 31.0301 78.2126 32.0245C82.238 32.9425 86.744 36.0359 87.2183 40.6123C88.104 49.1614 77.8418 56.4329 70.768 53.5855C64.5517 51.0836 61.0836 41.4508 64.0319 34.0925ZM64.0319 34.0925C64.0941 33.9373 64.1592 33.7831 64.2271 33.63C80.6246 -3.32281 123.004 -5.76239 142.784 12.8365" stroke="black" stroke-width="2" stroke-miterlimit="1.5" stroke-linecap="round" stroke-linejoin="round" stroke-dasharray="9 9"/>
</svg>
